<svg width="47" height="93" viewBox="0 0 47 93" fill="none" xmlns="http://www.w3.org/2000/svg">
<g style="mix-blend-mode:multiply">
<path d="M0 85.2798L1.38419 85.9365L26.1249 93.0001L46.5944 89.3833L41.5784 88.1399L0 85.2798Z" fill="#C1C1C1"/>
</g>
<g style="mix-blend-mode:multiply">
<path d="M0 85.2798L25.3141 91.62L42.7219 88.5632L41.5783 88.1399L0 85.2798Z" fill="#B0B0B0"/>
</g>
<path d="M0 85.2798L24.7077 90.9134L22.938 0L0 4.92352V85.2798Z" fill="#AAAAAA"/>
<path d="M41.5783 88.1399L24.7076 90.9134L22.9379 0L41.5783 3.76014V88.1399Z" fill="#616161"/>
<path d="M37.7685 52.189L28.2341 52.2688" stroke="#464646" stroke-width="3.57" stroke-miterlimit="10"/>
<path d="M37.7685 56.0259L28.2341 56.2492" stroke="#464646" stroke-width="3.57" stroke-miterlimit="10"/>
<path d="M37.7685 58.1191L28.2341 58.4291" stroke="#464646" stroke-width="3.57" stroke-miterlimit="10"/>
<path d="M37.7685 54.1519L28.2341 54.2718" stroke="#464646" stroke-width="3.57" stroke-miterlimit="10"/>
<path d="M28.2341 60.6762L37.7685 60.2695" stroke="#464646" stroke-width="3.57" stroke-miterlimit="10"/>
<path d="M28.2341 62.7895L37.7685 62.3828" stroke="#464646" stroke-width="3.57" stroke-miterlimit="10"/>
<path d="M37.7685 64.6123L28.2341 65.1957" stroke="#464646" stroke-width="3.57" stroke-miterlimit="10"/>
<path d="M37.7685 66.8955L28.2341 67.5955" stroke="#464646" stroke-width="3.57" stroke-miterlimit="10"/>
<path d="M28.2341 70.1126L37.7685 69.3359" stroke="#464646" stroke-width="3.57" stroke-miterlimit="10"/>
<path d="M33.4316 18.7379C34.4491 18.7379 35.2739 17.6873 35.2739 16.3912C35.2739 15.0951 34.4491 14.0444 33.4316 14.0444C32.4142 14.0444 31.5894 15.0951 31.5894 16.3912C31.5894 17.6873 32.4142 18.7379 33.4316 18.7379Z" fill="#25282D"/>
<path d="M33.4317 17.7978C34.0414 17.7978 34.5357 17.168 34.5357 16.3911C34.5357 15.6142 34.0414 14.9844 33.4317 14.9844C32.8219 14.9844 32.3276 15.6142 32.3276 16.3911C32.3276 17.168 32.8219 17.7978 33.4317 17.7978Z" fill="#616161"/>
<path d="M11.1789 62.719C13.0682 62.719 14.5998 60.7684 14.5998 58.3622C14.5998 55.956 13.0682 54.0054 11.1789 54.0054C9.28953 54.0054 7.75793 55.956 7.75793 58.3622C7.75793 60.7684 9.28953 62.719 11.1789 62.719Z" fill="#3D3D3D"/>
<g style="mix-blend-mode:multiply">
<path d="M11.505 65.7089H10.2592C10.1705 65.7082 10.0853 65.6734 10.021 65.6115C9.95675 65.5495 9.91819 65.4652 9.91317 65.3756L9.32654 59.2653L12.352 58.8887L11.8642 65.3822C11.8575 65.473 11.8163 65.5576 11.7494 65.6185C11.6825 65.6794 11.5949 65.7117 11.505 65.7089Z" fill="#E8E8E8"/>
</g>
<path d="M8.89856 58.3624C8.89856 59.6958 9.74555 60.7625 10.787 60.7625C11.8284 60.7625 12.6721 59.6891 12.6721 58.3624C12.6721 57.0357 11.8284 55.959 10.787 55.959C9.74555 55.959 8.89856 57.0357 8.89856 58.3624Z" fill="#616161"/>
<path d="M6.97357 66.3658C7.47594 66.3658 7.88318 65.8495 7.88318 65.2125C7.88318 64.5755 7.47594 64.0591 6.97357 64.0591C6.47121 64.0591 6.06396 64.5755 6.06396 65.2125C6.06396 65.8495 6.47121 66.3658 6.97357 66.3658Z" fill="#7E7E7E"/>
<path d="M11.1792 60.7626C11.4439 60.7171 11.6957 60.614 11.917 60.4603C12.1384 60.3066 12.3241 60.1061 12.4612 59.8726C12.7317 59.4167 12.8731 58.8943 12.8699 58.3626C12.874 57.8303 12.7313 57.3073 12.4579 56.8525C12.3213 56.6189 12.1363 56.4181 11.9155 56.2639C11.6947 56.1097 11.4435 56.0057 11.1792 55.9591C11.4732 55.9322 11.769 55.9835 12.0373 56.1081C12.3056 56.2326 12.537 56.4261 12.7084 56.6692C13.0676 57.1571 13.2617 57.7492 13.2617 58.3576C13.2617 58.9659 13.0676 59.558 12.7084 60.046C12.5377 60.2903 12.3067 60.485 12.0384 60.6108C11.7701 60.7365 11.4738 60.7889 11.1792 60.7626Z" fill="#E9EAED"/>
<path d="M11.3967 60.6358L8.80632 61.7325L7.69568 59.099L9.52808 56.5723L11.3967 60.6358Z" fill="#616161"/>
<path d="M10.088 61.189L7.79749 65.7091L8.1699 61.239L10.088 61.189Z" fill="#616161"/>
<path d="M8.46 61.7987C9.12072 61.7987 9.65634 61.1167 9.65634 60.2753C9.65634 59.434 9.12072 58.752 8.46 58.752C7.79929 58.752 7.26367 59.434 7.26367 60.2753C7.26367 61.1167 7.79929 61.7987 8.46 61.7987Z" fill="#7E7E7E"/>
<path d="M9.6266 60.6193C9.64776 60.3623 9.62885 60.1036 9.57057 59.8526C9.51367 59.6074 9.4008 59.3791 9.241 59.1859C9.08401 58.9901 8.86527 58.8547 8.62141 58.8025C8.37027 58.756 8.11097 58.8046 7.89307 58.9392C7.9947 58.8538 8.11293 58.791 8.24011 58.7548C8.36729 58.7187 8.50057 58.7099 8.6313 58.7292C8.898 58.7711 9.14051 58.9097 9.31351 59.1192C9.48113 59.3263 9.59448 59.5728 9.64308 59.8359C9.66836 59.9666 9.6805 60.0995 9.67933 60.2326C9.66944 60.3626 9.64308 60.4926 9.6266 60.6193Z" fill="#E9EAED"/>
<path d="M9.51479 60.9925L7.79774 65.7093L6.10376 64.8793L7.32975 59.7725L9.51479 60.9925Z" fill="#7E7E7E"/>
<path d="M5.01611 33.8083L18.1956 33.095V7.104L5.01611 9.53409V33.8083Z" fill="#C1C1C1"/>
<path d="M5.01611 9.53418L8.4601 16.2944L5.01611 33.8084V9.53418Z" fill="#7E7E7E"/>
<path d="M5.01611 9.53409L18.1956 7.104V14.881L8.4601 16.2943L5.01611 9.53409Z" fill="#464646"/>
<path d="M18.1954 27.5079L7.75793 28.3646L9.71557 17.8809L18.1954 16.7275V27.5079Z" fill="#464646"/>
<g style="mix-blend-mode:screen">
<path d="M0 4.92352L22.938 0L24.7077 90.9134L24.2793 90.8167L22.5524 0.573355L0 5.25353V4.92352Z" fill="#A8AFB8"/>
</g>
<g style="mix-blend-mode:multiply">
<path d="M33.4314 16.1611C33.4314 37.8286 34.4201 49.7824 34.4201 66.8297C34.4201 80.7502 30.2116 84.8303 24.3815 85.7004C19.0227 86.5104 16.4422 83.7803 13.4365 77.7001C10.8329 72.4466 10.8758 68.3664 10.8758 65.7096" stroke="#E8E8E8" stroke-width="3.57" stroke-miterlimit="10"/>
</g>
<path d="M32.756 16.7277C32.756 17.4277 33.1548 17.9944 33.6458 17.9944C34.1369 17.9944 34.5356 17.4277 34.5356 16.7277C34.5356 16.0276 34.1369 15.4609 33.6458 15.4609C33.1548 15.4609 32.756 16.0276 32.756 16.7277Z" fill="#7E7E7E"/>
<path d="M33.7512 16.7275C33.7512 38.395 39.4956 49.7821 39.4956 66.8161C39.4956 80.7366 29.859 85.9368 21.3693 85.9368C11.0703 85.9368 5.60938 81.85 5.60938 72.6029C5.62659 70.1345 6.08088 67.6891 6.95072 65.3827" stroke="#60AD5E" stroke-width="3.57" stroke-miterlimit="10" stroke-linecap="round"/>
<path d="M18.1956 7.104L5.01611 9.53409V33.8083L5.08203 9.6641L18.1956 7.104Z" fill="#E9EAED"/>
<path d="M5.01611 33.8083L18.1956 33.095V7.104L18.0868 32.995L5.01611 33.8083Z" fill="#E9EAED"/>
<path d="M11.2054 43.8456L11.68 39.6688C11.6867 39.6275 11.6844 39.5851 11.6732 39.5447C11.662 39.5044 11.6422 39.467 11.6152 39.4352C11.5882 39.4034 11.5546 39.378 11.5168 39.3608C11.479 39.3436 11.438 39.3349 11.3965 39.3355H10.9846C10.9242 39.3349 10.8653 39.3541 10.8166 39.3901C10.7679 39.4262 10.7321 39.4772 10.7143 39.5355L8.89839 45.3357C8.88492 45.3787 8.88166 45.4242 8.88886 45.4687C8.89607 45.5132 8.91355 45.5554 8.93987 45.5917C8.9662 45.6281 9.00064 45.6577 9.04038 45.6781C9.08013 45.6984 9.12407 45.7091 9.16864 45.709H10.2529C10.2943 45.7084 10.3352 45.717 10.3729 45.7343C10.4106 45.7515 10.444 45.777 10.4708 45.8088C10.4975 45.8407 10.517 45.8782 10.5278 45.9186C10.5386 45.9589 10.5404 46.0012 10.5331 46.0424L10.0453 50.1192C10.0386 50.1603 10.0408 50.2024 10.0518 50.2425C10.0628 50.2826 10.0823 50.3198 10.109 50.3515C10.1356 50.3833 10.1688 50.4087 10.2062 50.4262C10.2436 50.4436 10.2843 50.4526 10.3254 50.4526H10.7407C10.8008 50.4521 10.8592 50.4325 10.9077 50.3966C10.9562 50.3607 10.9923 50.3103 11.0109 50.2526L12.8137 44.5857C12.8271 44.5427 12.8304 44.4971 12.8232 44.4526C12.816 44.4082 12.7985 44.366 12.7722 44.3297C12.7459 44.2933 12.7114 44.2637 12.6717 44.2433C12.6319 44.2229 12.588 44.2123 12.5434 44.2123H11.469C11.426 44.2104 11.384 44.1987 11.346 44.178C11.3081 44.1574 11.2753 44.1284 11.2499 44.0932C11.2246 44.058 11.2074 44.0174 11.1997 43.9746C11.192 43.9317 11.1939 43.8876 11.2054 43.8456Z" fill="#2E7D32"/>
</svg>
